<svg id="Capa_1" enable-background="new 0 0 512 512" height="512" viewBox="0 0 512 512" width="512" xmlns="http://www.w3.org/2000/svg"><g><g><g><g><g><g><g><circle cx="256" cy="256" fill="#ffce00" r="256"/></g></g></g></g></g></g><path d="m512 256c0-29.417-4.962-57.674-14.094-83.982l-54.406-54.406-375 276.776 103.518 103.518c26.308 9.132 54.565 14.094 83.982 14.094 141.385 0 256-114.615 256-256z" fill="#ffa300"/><g><path d="m68.5 117.612h375v276.776h-375z" fill="#7584f2"/></g><g><path d="m256.121 117.612h187.379v276.776h-187.379z" fill="#606aea"/></g><g><path d="m125.541 243.947v-84.321h61.819v18.963h-40.075v13.147h39.19v18.963h-39.19v14.285h40.075v18.963z" fill="#fff"/><path d="m253.473 243.947-18.331-28.318-18.331 28.318h-25.789l29.456-43.235-27.559-41.086h25.663l16.561 26.422 16.309-26.422h25.789l-27.433 40.96 29.329 43.362h-25.664z" fill="#fff"/><g fill="#e9edf5"><path d="m285.453 243.947v-84.321h21.744v84.321z"/><path d="m341.201 243.947v-65.359h-23.641v-18.963h68.899v18.963h-23.514v65.359z"/></g></g><g><path d="m129.489 308.127h138.393v30h-138.393z" fill="#fff"/></g><path d="m351.113 267.599-21.213 21.213 19.316 19.315h-93.095v30h93.095l-19.316 19.316 21.213 21.213 55.529-55.529z" fill="#e9edf5"/></g></svg>